<?xml version="1.0" encoding="UTF-8"?>
<!DOCTYPE svg PUBLIC "-//W3C//DTD SVG 1.1//EN" "http://www.w3.org/Graphics/SVG/1.1/DTD/svg11.dtd">
<!-- Creator: CorelDRAW 2021 (64-Bit) -->
<svg xmlns="http://www.w3.org/2000/svg" xml:space="preserve" width="8.5in" height="11in" version="1.1" style="shape-rendering:geometricPrecision; text-rendering:geometricPrecision; image-rendering:optimizeQuality; fill-rule:evenodd; clip-rule:evenodd"
viewBox="0 0 8500 11000"
 xmlns:xlink="http://www.w3.org/1999/xlink"
 xmlns:xodm="http://www.corel.com/coreldraw/odm/2003">
 <defs>
  <style type="text/css">
   <![CDATA[
    .fil0 {fill:white;fill-rule:nonzero}
   ]]>
  </style>
 </defs>
 <g id="Layer_x0020_1">
  <metadata id="CorelCorpID_0Corel-Layer"/>
  <path id="Path_1090" class="fil0" d="M7917.44 7841.36c-861.67,1159.25 -2223.81,1843.64 -3669.08,1843.64 -598.96,0 -1193.57,-118.33 -1746.77,-346.61l-8.06 -3.7c-550.81,-229.47 -1052.8,-566.17 -1474.91,-988.83l0 -1.42c-156.58,-156.58 -303.35,-326.23 -436.07,-504.28l18.2 -10.68c486.95,-271.54 1754.83,-361.54 2281.23,-728.85 46.63,-74.64 86.95,-153.09 120.62,-233.94 60.26,-137.84 115.28,-288.31 150.15,-391.17 -143.61,-177.06 -276.11,-365.46 -393.35,-561.05l-398.69 -634.27c-126.4,-169.11 -204.74,-369.49 -226.1,-579.57 -0.33,-7.41 -0.54,-14.93 -0.54,-22.44 0,-63.85 13.73,-127.27 40.1,-185.46 29.75,-64.94 77.26,-120.19 136.96,-159.41 29.75,-20.48 62.33,-36.83 96.43,-48.71 -17.22,-245.38 -27.02,-491.31 -27.02,-737.35 0,-133.37 3.7,-271.64 8.61,-403.81 8.28,-87.17 24.95,-174.34 48.27,-259.11 110.93,-359.03 351.08,-665 673.39,-858.41 174.78,-110.81 365.24,-195.48 564.43,-250.94 127.16,-36.28 -108.09,-440.75 23.1,-454.92 634.27,-65.16 1657.43,513.43 2099.92,991.44 240.37,269.79 378.75,615.96 390.41,977.28l-24.84 1035.03c105.26,26.91 186.44,110.93 209.86,217.05 4.03,34.54 6.1,69.74 6.1,104.61 0,154.29 -39.99,306.07 -115.94,440.31 -1.85,4.57 -4.14,9.04 -6.65,13.3l-454.59 749.55c-153.42,277.09 -341.05,536.75 -556.91,768.73 20.48,28.88 41.19,57.64 61.13,86.52 86.74,135.55 187.09,264.02 297.14,381.81 3.7,3.81 6.97,8.06 9.7,12.53 523.24,369.93 1796.9,459.82 2285.59,732.23l18.2 10.89z" data-name="Path 1090"/>
 </g>
</svg>
