<?xml version="1.0" encoding="UTF-8"?>
<!DOCTYPE svg PUBLIC "-//W3C//DTD SVG 1.1//EN" "http://www.w3.org/Graphics/SVG/1.1/DTD/svg11.dtd">
<!-- Creator: CorelDRAW 2021 (64-Bit) -->
<svg xmlns="http://www.w3.org/2000/svg" xml:space="preserve" width="1.66666in" height="0.999992in" version="1.1" style="shape-rendering:geometricPrecision; text-rendering:geometricPrecision; image-rendering:optimizeQuality; fill-rule:evenodd; clip-rule:evenodd"
viewBox="0 0 1666.66 999.99"
 xmlns:xlink="http://www.w3.org/1999/xlink"
 xmlns:xodm="http://www.corel.com/coreldraw/odm/2003">
 <defs>
  <style type="text/css">
   <![CDATA[
    .fil0 {fill:black;fill-rule:nonzero}
   ]]>
  </style>
 </defs>
 <g id="Layer_x0020_1">
  <metadata id="CorelCorpID_0Corel-Layer"/>
  <g id="_2225120816464">
   <path class="fil0" d="M1143.05 565.78c-45.83,-13.89 -80.56,11.11 -115.28,29.17 -4.17,2.78 -6.94,9.72 -8.33,15.28 -19.44,76.39 -40.28,152.78 -59.72,229.17 -6.94,29.17 11.11,58.33 38.89,65.28 29.17,6.94 58.33,-6.94 66.67,-36.11 26.39,-101.39 51.39,-201.39 77.78,-302.78z"/>
   <path class="fil0" d="M741.67 164.39l0 518.05c8.33,-2.78 15.28,-5.56 22.22,-8.33 93.05,-45.83 186.11,-93.06 279.16,-138.89 12.5,-6.94 18.06,-12.5 18.06,-27.78 -1.39,-54.17 0,-108.33 -1.39,-162.5 0,-8.33 -4.17,-20.83 -11.11,-25 -100,-52.77 -201.39,-102.77 -306.94,-155.55z"/>
   <path class="fil0" d="M626.39 428.28c0,94.44 0,188.89 0,283.33 0,31.94 11.11,47.22 34.72,45.83 22.22,0 33.33,-15.28 33.33,-44.44 0,-191.66 0,-384.72 0,-576.39 0,-30.56 -11.11,-43.06 -34.72,-43.06 -23.61,0 -33.33,13.89 -33.33,44.44 0,97.22 0,193.06 0,290.28z"/>
   <path class="fil0" d="M1109.72 517.17c45.83,0 90.28,0 133.33,0 16.67,0 25,-11.11 25,-26.39 0,-43.06 0,-86.11 0,-130.56 0,-15.28 -6.94,-26.39 -25,-26.39 -44.44,0 -87.5,0 -133.33,0l0 183.33z"/>
   <path class="fil0" d="M511.11 286.62c18.06,-1.39 29.17,-22.22 18.06,-36.11 -15.28,-18.06 -31.94,-34.72 -50,-50 -5.56,-4.17 -19.44,-4.17 -25,0 -5.56,4.17 -11.11,19.44 -8.33,23.61 18.06,20.83 38.89,41.67 59.72,61.11 0,1.39 4.17,1.39 5.56,1.39z"/>
   <path class="fil0" d="M443.06 636.61c2.78,4.17 6.94,12.5 12.5,13.89 6.94,2.78 18.06,2.78 22.22,-1.39 18.06,-15.28 34.72,-31.94 50,-50 4.17,-5.56 4.17,-19.44 0,-25 -4.17,-5.56 -19.44,-11.11 -23.61,-8.33 -20.83,18.06 -41.67,38.89 -61.11,59.72 0,1.39 0,4.17 0,11.11z"/>
   <path class="fil0" d="M454.17 446.34c12.5,0 25,2.78 34.72,-1.39 8.33,-2.78 19.44,-13.89 19.44,-20.83 0,-6.94 -11.11,-20.83 -18.06,-20.83 -23.61,-2.78 -48.61,-2.78 -73.61,0 -6.94,1.39 -18.06,13.89 -18.06,20.83 0,6.94 11.11,16.67 19.44,19.44 11.11,5.56 23.61,2.78 36.11,2.78z"/>
  </g>
 </g>
</svg>
